<mxfile host="Electron" agent="Mozilla/5.0 (Windows NT 10.0; Win64; x64) AppleWebKit/537.36 (KHTML, like Gecko) draw.io/24.7.8 Chrome/128.0.6613.36 Electron/32.0.1 Safari/537.36" version="24.7.8">
  <diagram name="sd" id="eXQ1BXGLh_5n9RDgE9qF">
    <mxGraphModel dx="882" dy="677" grid="1" gridSize="10" guides="1" tooltips="1" connect="1" arrows="1" fold="1" page="1" pageScale="1" pageWidth="1169" pageHeight="827" math="0" shadow="0">
      <root>
        <mxCell id="0" />
        <mxCell id="1" parent="0" />
        <mxCell id="JHqvVUvI9hTNreNDda3T-25" style="edgeStyle=none;shape=connector;rounded=0;orthogonalLoop=1;jettySize=auto;html=1;exitX=0.5;exitY=1;exitDx=0;exitDy=0;strokeColor=default;align=center;verticalAlign=middle;fontFamily=Helvetica;fontSize=11;fontColor=default;labelBackgroundColor=default;endArrow=none;endFill=0;" parent="1" source="JHqvVUvI9hTNreNDda3T-1" edge="1">
          <mxGeometry relative="1" as="geometry">
            <mxPoint x="659.6470588235295" y="210" as="targetPoint" />
          </mxGeometry>
        </mxCell>
        <mxCell id="JHqvVUvI9hTNreNDda3T-1" value="Tangasdale&lt;div&gt;Sea Tours&lt;/div&gt;" style="rounded=0;whiteSpace=wrap;html=1;" parent="1" vertex="1">
          <mxGeometry x="600" y="120" width="120" height="60" as="geometry" />
        </mxCell>
        <mxCell id="JHqvVUvI9hTNreNDda3T-28" style="edgeStyle=none;shape=connector;rounded=0;orthogonalLoop=1;jettySize=auto;html=1;exitX=0.5;exitY=0;exitDx=0;exitDy=0;strokeColor=default;align=center;verticalAlign=middle;fontFamily=Helvetica;fontSize=11;fontColor=default;labelBackgroundColor=default;endArrow=none;endFill=0;" parent="1" source="JHqvVUvI9hTNreNDda3T-2" edge="1">
          <mxGeometry relative="1" as="geometry">
            <mxPoint x="659.6470588235295" y="210" as="targetPoint" />
          </mxGeometry>
        </mxCell>
        <mxCell id="JHqvVUvI9hTNreNDda3T-2" value="Calculate total&lt;div&gt;cost of&amp;nbsp;&lt;span style=&quot;background-color: initial;&quot;&gt;tours&lt;/span&gt;&lt;/div&gt;" style="rounded=0;whiteSpace=wrap;html=1;" parent="1" vertex="1">
          <mxGeometry x="600" y="240" width="120" height="60" as="geometry" />
        </mxCell>
        <mxCell id="JHqvVUvI9hTNreNDda3T-19" style="edgeStyle=none;shape=connector;rounded=0;orthogonalLoop=1;jettySize=auto;html=1;exitX=0.5;exitY=1;exitDx=0;exitDy=0;strokeColor=default;align=center;verticalAlign=middle;fontFamily=Helvetica;fontSize=11;fontColor=default;labelBackgroundColor=default;endArrow=none;endFill=0;" parent="1" source="JHqvVUvI9hTNreNDda3T-3" edge="1">
          <mxGeometry relative="1" as="geometry">
            <mxPoint x="499.6470588235295" y="330" as="targetPoint" />
          </mxGeometry>
        </mxCell>
        <mxCell id="JHqvVUvI9hTNreNDda3T-27" style="edgeStyle=none;shape=connector;rounded=0;orthogonalLoop=1;jettySize=auto;html=1;exitX=0.5;exitY=0;exitDx=0;exitDy=0;strokeColor=default;align=center;verticalAlign=middle;fontFamily=Helvetica;fontSize=11;fontColor=default;labelBackgroundColor=default;endArrow=none;endFill=0;" parent="1" source="JHqvVUvI9hTNreNDda3T-3" edge="1">
          <mxGeometry relative="1" as="geometry">
            <mxPoint x="499.6470588235295" y="210" as="targetPoint" />
          </mxGeometry>
        </mxCell>
        <mxCell id="JHqvVUvI9hTNreNDda3T-3" value="Loop for each tour" style="rounded=1;whiteSpace=wrap;html=1;arcSize=50;" parent="1" vertex="1">
          <mxGeometry x="440" y="240" width="120" height="60" as="geometry" />
        </mxCell>
        <mxCell id="JHqvVUvI9hTNreNDda3T-16" style="edgeStyle=none;shape=connector;rounded=0;orthogonalLoop=1;jettySize=auto;html=1;exitX=0.5;exitY=1;exitDx=0;exitDy=0;strokeColor=default;align=center;verticalAlign=middle;fontFamily=Helvetica;fontSize=11;fontColor=default;labelBackgroundColor=default;endArrow=none;endFill=0;entryX=0.5;entryY=0;entryDx=0;entryDy=0;" parent="1" source="JHqvVUvI9hTNreNDda3T-4" target="JHqvVUvI9hTNreNDda3T-30" edge="1">
          <mxGeometry relative="1" as="geometry">
            <mxPoint x="419.6470588235295" y="450" as="targetPoint" />
          </mxGeometry>
        </mxCell>
        <mxCell id="JHqvVUvI9hTNreNDda3T-17" style="edgeStyle=none;shape=connector;rounded=0;orthogonalLoop=1;jettySize=auto;html=1;exitX=0.5;exitY=0;exitDx=0;exitDy=0;strokeColor=default;align=center;verticalAlign=middle;fontFamily=Helvetica;fontSize=11;fontColor=default;labelBackgroundColor=default;endArrow=none;endFill=0;" parent="1" source="JHqvVUvI9hTNreNDda3T-4" edge="1">
          <mxGeometry relative="1" as="geometry">
            <mxPoint x="419.6470588235295" y="330" as="targetPoint" />
          </mxGeometry>
        </mxCell>
        <mxCell id="JHqvVUvI9hTNreNDda3T-4" value="Get valid number&lt;div&gt;of passengers&lt;/div&gt;" style="rounded=0;whiteSpace=wrap;html=1;" parent="1" vertex="1">
          <mxGeometry x="360" y="360" width="120" height="60" as="geometry" />
        </mxCell>
        <mxCell id="JHqvVUvI9hTNreNDda3T-14" style="edgeStyle=none;shape=connector;rounded=0;orthogonalLoop=1;jettySize=auto;html=1;exitX=0.5;exitY=0;exitDx=0;exitDy=0;strokeColor=default;align=center;verticalAlign=middle;fontFamily=Helvetica;fontSize=11;fontColor=default;labelBackgroundColor=default;endArrow=none;endFill=0;" parent="1" source="JHqvVUvI9hTNreNDda3T-5" edge="1">
          <mxGeometry relative="1" as="geometry">
            <mxPoint x="339.6470588235295" y="570" as="targetPoint" />
          </mxGeometry>
        </mxCell>
        <mxCell id="JHqvVUvI9hTNreNDda3T-5" value="Get valid&lt;div&gt;&lt;span style=&quot;background-color: initial;&quot;&gt;passenger type&lt;/span&gt;&lt;/div&gt;" style="rounded=0;whiteSpace=wrap;html=1;" parent="1" vertex="1">
          <mxGeometry x="280" y="600" width="120" height="60" as="geometry" />
        </mxCell>
        <mxCell id="JHqvVUvI9hTNreNDda3T-10" style="rounded=0;orthogonalLoop=1;jettySize=auto;html=1;exitX=0.375;exitY=1;exitDx=0;exitDy=0;entryX=0.5;entryY=0;entryDx=0;entryDy=0;endArrow=none;endFill=0;" parent="1" source="JHqvVUvI9hTNreNDda3T-6" target="JHqvVUvI9hTNreNDda3T-7" edge="1">
          <mxGeometry relative="1" as="geometry" />
        </mxCell>
        <mxCell id="JHqvVUvI9hTNreNDda3T-11" style="rounded=0;orthogonalLoop=1;jettySize=auto;html=1;exitX=0.625;exitY=1;exitDx=0;exitDy=0;entryX=0.5;entryY=0;entryDx=0;entryDy=0;endArrow=none;endFill=0;" parent="1" source="JHqvVUvI9hTNreNDda3T-6" target="JHqvVUvI9hTNreNDda3T-8" edge="1">
          <mxGeometry relative="1" as="geometry" />
        </mxCell>
        <mxCell id="JHqvVUvI9hTNreNDda3T-15" style="edgeStyle=none;shape=connector;rounded=0;orthogonalLoop=1;jettySize=auto;html=1;exitX=0.5;exitY=0;exitDx=0;exitDy=0;strokeColor=default;align=center;verticalAlign=middle;fontFamily=Helvetica;fontSize=11;fontColor=default;labelBackgroundColor=default;endArrow=none;endFill=0;" parent="1" source="JHqvVUvI9hTNreNDda3T-6" edge="1">
          <mxGeometry relative="1" as="geometry">
            <mxPoint x="499.6470588235295" y="570" as="targetPoint" />
          </mxGeometry>
        </mxCell>
        <mxCell id="JHqvVUvI9hTNreNDda3T-6" value="Is passenger&lt;div&gt;type = adult?&lt;/div&gt;" style="shape=hexagon;perimeter=hexagonPerimeter2;whiteSpace=wrap;html=1;fixedSize=1;" parent="1" vertex="1">
          <mxGeometry x="440" y="600" width="120" height="60" as="geometry" />
        </mxCell>
        <mxCell id="JHqvVUvI9hTNreNDda3T-7" value="Increase tour&lt;div&gt;cost by £25&lt;/div&gt;" style="rounded=0;whiteSpace=wrap;html=1;" parent="1" vertex="1">
          <mxGeometry x="360" y="720" width="120" height="60" as="geometry" />
        </mxCell>
        <mxCell id="JHqvVUvI9hTNreNDda3T-8" value="Increase tour&lt;div&gt;cost by £15&lt;/div&gt;" style="rounded=0;whiteSpace=wrap;html=1;" parent="1" vertex="1">
          <mxGeometry x="520" y="720" width="120" height="60" as="geometry" />
        </mxCell>
        <mxCell id="JHqvVUvI9hTNreNDda3T-18" style="edgeStyle=none;shape=connector;rounded=0;orthogonalLoop=1;jettySize=auto;html=1;exitX=0.5;exitY=0;exitDx=0;exitDy=0;strokeColor=default;align=center;verticalAlign=middle;fontFamily=Helvetica;fontSize=11;fontColor=default;labelBackgroundColor=default;endArrow=none;endFill=0;" parent="1" source="JHqvVUvI9hTNreNDda3T-9" edge="1">
          <mxGeometry relative="1" as="geometry">
            <mxPoint x="579.6470588235295" y="330" as="targetPoint" />
          </mxGeometry>
        </mxCell>
        <mxCell id="JHqvVUvI9hTNreNDda3T-9" value="Store tour cost" style="rounded=0;whiteSpace=wrap;html=1;" parent="1" vertex="1">
          <mxGeometry x="520" y="360" width="120" height="60" as="geometry" />
        </mxCell>
        <mxCell id="JHqvVUvI9hTNreNDda3T-12" value="" style="endArrow=none;html=1;rounded=0;strokeColor=default;align=center;verticalAlign=middle;fontFamily=Helvetica;fontSize=11;fontColor=default;labelBackgroundColor=default;" parent="1" edge="1">
          <mxGeometry width="50" height="50" relative="1" as="geometry">
            <mxPoint x="340" y="570" as="sourcePoint" />
            <mxPoint x="500" y="570" as="targetPoint" />
          </mxGeometry>
        </mxCell>
        <mxCell id="JHqvVUvI9hTNreNDda3T-13" value="" style="endArrow=none;html=1;rounded=0;strokeColor=default;align=center;verticalAlign=middle;fontFamily=Helvetica;fontSize=11;fontColor=default;labelBackgroundColor=default;" parent="1" edge="1">
          <mxGeometry width="50" height="50" relative="1" as="geometry">
            <mxPoint x="420" y="330" as="sourcePoint" />
            <mxPoint x="580" y="330" as="targetPoint" />
          </mxGeometry>
        </mxCell>
        <mxCell id="JHqvVUvI9hTNreNDda3T-26" style="edgeStyle=none;shape=connector;rounded=0;orthogonalLoop=1;jettySize=auto;html=1;exitX=0.5;exitY=0;exitDx=0;exitDy=0;strokeColor=default;align=center;verticalAlign=middle;fontFamily=Helvetica;fontSize=11;fontColor=default;labelBackgroundColor=default;endArrow=none;endFill=0;" parent="1" source="JHqvVUvI9hTNreNDda3T-20" edge="1">
          <mxGeometry relative="1" as="geometry">
            <mxPoint x="339.6470588235295" y="210" as="targetPoint" />
          </mxGeometry>
        </mxCell>
        <mxCell id="JHqvVUvI9hTNreNDda3T-20" value="Get valid number&lt;div&gt;of tours&lt;/div&gt;" style="rounded=0;whiteSpace=wrap;html=1;" parent="1" vertex="1">
          <mxGeometry x="280" y="240" width="120" height="60" as="geometry" />
        </mxCell>
        <mxCell id="JHqvVUvI9hTNreNDda3T-29" style="edgeStyle=none;shape=connector;rounded=0;orthogonalLoop=1;jettySize=auto;html=1;exitX=0.5;exitY=0;exitDx=0;exitDy=0;strokeColor=default;align=center;verticalAlign=middle;fontFamily=Helvetica;fontSize=11;fontColor=default;labelBackgroundColor=default;endArrow=none;endFill=0;" parent="1" source="JHqvVUvI9hTNreNDda3T-21" edge="1">
          <mxGeometry relative="1" as="geometry">
            <mxPoint x="979.6470588235295" y="210" as="targetPoint" />
          </mxGeometry>
        </mxCell>
        <mxCell id="JHqvVUvI9hTNreNDda3T-21" value="Display cost of tours" style="rounded=0;whiteSpace=wrap;html=1;" parent="1" vertex="1">
          <mxGeometry x="920" y="240" width="120" height="60" as="geometry" />
        </mxCell>
        <mxCell id="YAo7TNQyRswxn5Hg-1_i-3" style="edgeStyle=none;shape=connector;rounded=0;orthogonalLoop=1;jettySize=auto;html=1;exitX=0.5;exitY=0;exitDx=0;exitDy=0;entryX=0.5;entryY=1;entryDx=0;entryDy=0;strokeColor=default;align=center;verticalAlign=middle;fontFamily=Helvetica;fontSize=11;fontColor=default;labelBackgroundColor=default;endArrow=none;endFill=0;" edge="1" parent="1" source="JHqvVUvI9hTNreNDda3T-22" target="YAo7TNQyRswxn5Hg-1_i-1">
          <mxGeometry relative="1" as="geometry" />
        </mxCell>
        <mxCell id="JHqvVUvI9hTNreNDda3T-22" value="Display total&lt;div&gt;cost of&amp;nbsp;&lt;span style=&quot;background-color: initial;&quot;&gt;tours&lt;/span&gt;&lt;/div&gt;" style="rounded=0;whiteSpace=wrap;html=1;" parent="1" vertex="1">
          <mxGeometry x="920" y="480" width="120" height="60" as="geometry" />
        </mxCell>
        <mxCell id="JHqvVUvI9hTNreNDda3T-24" value="" style="endArrow=none;html=1;rounded=0;strokeColor=default;align=center;verticalAlign=middle;fontFamily=Helvetica;fontSize=11;fontColor=default;labelBackgroundColor=default;" parent="1" edge="1">
          <mxGeometry width="50" height="50" relative="1" as="geometry">
            <mxPoint x="340" y="210" as="sourcePoint" />
            <mxPoint x="980" y="210" as="targetPoint" />
          </mxGeometry>
        </mxCell>
        <mxCell id="JHqvVUvI9hTNreNDda3T-31" style="edgeStyle=none;shape=connector;rounded=0;orthogonalLoop=1;jettySize=auto;html=1;exitX=0.5;exitY=1;exitDx=0;exitDy=0;strokeColor=default;align=center;verticalAlign=middle;fontFamily=Helvetica;fontSize=11;fontColor=default;labelBackgroundColor=default;endArrow=none;endFill=0;" parent="1" source="JHqvVUvI9hTNreNDda3T-30" edge="1">
          <mxGeometry relative="1" as="geometry">
            <mxPoint x="419.6470588235295" y="570" as="targetPoint" />
          </mxGeometry>
        </mxCell>
        <mxCell id="JHqvVUvI9hTNreNDda3T-30" value="Loop for each passenger" style="rounded=1;whiteSpace=wrap;html=1;arcSize=50;" parent="1" vertex="1">
          <mxGeometry x="360" y="480" width="120" height="60" as="geometry" />
        </mxCell>
        <mxCell id="JHqvVUvI9hTNreNDda3T-32" value="Yes" style="text;html=1;align=right;verticalAlign=middle;whiteSpace=wrap;rounded=0;fontFamily=Helvetica;fontSize=11;fontColor=default;labelBackgroundColor=default;" parent="1" vertex="1">
          <mxGeometry x="420" y="660" width="40" height="20" as="geometry" />
        </mxCell>
        <mxCell id="JHqvVUvI9hTNreNDda3T-33" value="No" style="text;html=1;align=left;verticalAlign=middle;whiteSpace=wrap;rounded=0;fontFamily=Helvetica;fontSize=11;fontColor=default;labelBackgroundColor=default;" parent="1" vertex="1">
          <mxGeometry x="540" y="660" width="40" height="20" as="geometry" />
        </mxCell>
        <mxCell id="JHqvVUvI9hTNreNDda3T-35" style="edgeStyle=none;shape=connector;rounded=0;orthogonalLoop=1;jettySize=auto;html=1;exitX=0.5;exitY=0;exitDx=0;exitDy=0;strokeColor=default;align=center;verticalAlign=middle;fontFamily=Helvetica;fontSize=11;fontColor=default;labelBackgroundColor=default;endArrow=none;endFill=0;" parent="1" source="JHqvVUvI9hTNreNDda3T-34" edge="1">
          <mxGeometry relative="1" as="geometry">
            <mxPoint x="820" y="210" as="targetPoint" />
          </mxGeometry>
        </mxCell>
        <mxCell id="JHqvVUvI9hTNreNDda3T-34" value="Calculate average cost of tours&amp;nbsp;&lt;span style=&quot;background-color: initial;&quot;&gt;to&lt;/span&gt;&lt;div&gt;&lt;span style=&quot;background-color: initial;&quot;&gt;two decimal places&lt;/span&gt;&lt;/div&gt;" style="rounded=0;whiteSpace=wrap;html=1;" parent="1" vertex="1">
          <mxGeometry x="760" y="240" width="120" height="60" as="geometry" />
        </mxCell>
        <mxCell id="YAo7TNQyRswxn5Hg-1_i-2" style="rounded=0;orthogonalLoop=1;jettySize=auto;html=1;exitX=0.5;exitY=0;exitDx=0;exitDy=0;entryX=0.5;entryY=1;entryDx=0;entryDy=0;endArrow=none;endFill=0;" edge="1" parent="1" source="YAo7TNQyRswxn5Hg-1_i-1" target="JHqvVUvI9hTNreNDda3T-21">
          <mxGeometry relative="1" as="geometry" />
        </mxCell>
        <mxCell id="YAo7TNQyRswxn5Hg-1_i-1" value="Display average&lt;div&gt;cost of&amp;nbsp;&lt;span style=&quot;background-color: initial;&quot;&gt;tours&lt;/span&gt;&lt;/div&gt;" style="rounded=0;whiteSpace=wrap;html=1;" vertex="1" parent="1">
          <mxGeometry x="920" y="360" width="120" height="60" as="geometry" />
        </mxCell>
      </root>
    </mxGraphModel>
  </diagram>
</mxfile>
